<?xml version="1.0" encoding="utf-8"?>
<!-- Generator: Adobe Illustrator 26.5.3, SVG Export Plug-In . SVG Version: 6.00 Build 0)  -->
<svg version="1.1" id="レイヤー_1" xmlns="http://www.w3.org/2000/svg" xmlns:xlink="http://www.w3.org/1999/xlink" x="0px"
	 y="0px" viewBox="0 0 368 368" style="enable-background:new 0 0 368 368;" xml:space="preserve">
<style type="text/css">
	.st0{fill:#FFFFFF;}
	.st1{fill:#B9C3C9;}
	.st2{fill:#63A6DB;}
	.st3{fill:#070C47;}
	.st4{fill:#478657;}
	.st5{fill:#74A64C;}
	.st6{fill:#593D1C;}
	.st7{fill:#F6BAB2;}
	.st8{fill:#D94C3C;}
	.st9{fill:#F29600;}
	.st10{fill:none;stroke:#593D1C;stroke-width:1.9587;stroke-linecap:round;stroke-linejoin:round;stroke-miterlimit:10;}
</style>
<g>
	<circle class="st0" cx="184.1" cy="184" r="183.7"/>
	<g>
		<path class="st0" d="M44.6,109.4c-0.1-0.2-0.2-0.3-0.2-0.3s-0.2-0.3-0.2-0.7s-0.1-1-0.1-1.3c0-0.3-0.3-0.5-0.3-0.5l-1-0.5h-1.1
			l-1.3,0.3l-2.3-0.5l-5.4,3.4l-0.6,0.6l-0.9,0v-0.7l-0.2-0.6H30l-0.5-0.3l-0.2-0.2c0,0,0,0.1,0,0.1s-0.3,0.3-0.6,0.5l-0.2,1.7
			c0,0-0.3,0.6-0.3,0.7c0,0.1,0.2,0.9,0.2,0.9l0.3,0.5l0.5,0.3l0.6,0.6L31,114l-0.1,0.1l1,1l0.3,0.2c0,0,2.8,0.2,2.9,0.2
			c0.1,0,1.3,0,1.5-0.1c0.2,0,0.5-0.1,0.9-0.3c0.3-0.2,1-0.7,1.1-1c0.1-0.2,1.5-1,1.5-1l0.8-1h1.1l1.4,0.1c0,0,0.3,0.5,0.3,0.6
			c0,0.1,0.6,0.8,0.7,1.1c0.1,0.3,0.8,0.9,0.8,0.9l0.8,0.1l-1.7-5L44.6,109.4z"/>
		<path class="st1" d="M44.6,109.4l-0.2,0.4l1.6,5.1l0.4,0l0.5-0.1l0,0C46.1,112.1,45,110,44.6,109.4z"/>
		<g>
			<path class="st2" d="M343.9,184.4c14.3-6.6,20.5-10.1,18.8-12.3c-2.3-3.1-14.4-6.5-14.4-6.5s3.6,1.9,8.9,4.8
				c4.6,2.6-1.9,4.9-7,6.7c-2.1,0.7-5.2,2.1-7.9,3.3c-1.7,0.7-3.3,1.4-4.7,2.2c-0.2,0.1-0.3,0.1-0.3,0.1l0,0
				c-21.6,12-16,35.7-10.9,46.6c0.5,2.3,2,11.7-2,19.2c-2.8,5.4-7.9,13.8-14,22c-4.5,3.7-25.5,20.6-53.6,34.2
				c-4.7,1.9-9.3,3.7-13.8,5.3c-35.1,14.2-68.3,21.5-129.1-5.5c-0.2-0.1-1-0.4-2.4-0.9c-5.2-2.6-9.5-4.1-14.7-8.2
				c-6.4-5-10.5-9.1-11.4-10.5c-1.6-2.7-4.1-5.6-7.7-5.6c-3.7,0-3.2,3.3-1.5,5.8c1.7,2.5,5.3,6.4,1.4,7.6
				c-7,2.3-15.3-14.8-15.8-16.6c-0.5-1.8-2.8-4-4.5-3.1c-1.7,0.9-1.4,3.1-1.1,4.3c0.3,1.2,6.5,12.2,1.5,10.6
				c-4.9-1.5-11.6-12.1-12.1-13.7c-0.5-1.7-2.3-3.8-4.2-3.1c-1.8,0.8-1.5,2.2-0.9,4.2c0.6,2,2.2,6.9-0.6,6
				c-2.8-0.9-8.3-9.5-9.1-12.6c-0.8-3.1-4.2-2-4.6-0.2c-1.5,6.5,5.7,18.9,5.7,18.9c5.3,11.1,23.5,28.5,23.5,28.5
				c17.9,15.5,51.4,48.4,121.2,51.7c20.6,1,43.4,0,78.6-14.6c46.5-19.3,74.6-54.4,87-77.4c12.1-22.6,17.2-33.6,1.3-55.2
				C328.2,199,338.8,188,343.9,184.4z"/>
			<path class="st3" d="M38.7,71c0,0,23.9-12.3,40.2-7.7c16.3,4.6,48.9,12.9,48.9,12.9s50.5-16,64.6-15.1s24.6,3.4,73.6,32
				l59.6-26.6c0,0-50.6-67.3-141.9-66.5C99.5,0.8,54.7,51.4,38.7,71z"/>
			<path class="st0" d="M291.5,55.1c-0.4,0-0.8-0.1-1.2-0.4c-14.6-11.9-30.9-21.2-48.4-27.6c-0.5-0.2-0.8-0.5-1-1
				c-0.2-0.5-0.2-1-0.1-1.4c0.3-0.7,1-1.2,1.7-1.2c0.2,0,0.4,0,0.6,0.1c18,6.6,34.6,16.1,49.5,28.2c0.8,0.6,0.9,1.8,0.3,2.6
				C292.6,54.9,292,55.1,291.5,55.1z"/>
			<path class="st0" d="M110.1,33.7l-0.2,0c-0.6-0.1-1.1-0.5-1.3-1c-0.4-0.9-0.1-2,0.9-2.5c18.8-9.1,38.9-14.6,59.6-16.4l0.2,0
				c1,0,1.8,0.7,1.8,1.7c0.1,1-0.7,1.9-1.7,2c-20.3,1.8-39.9,7.2-58.3,16C110.8,33.7,110.5,33.7,110.1,33.7L110.1,33.7z"/>
			<polygon class="st0" points="127.1,35.9 129.3,39 133.2,39 130.9,42 132.1,45.7 128.5,44.4 125.4,46.7 125.5,42.9 122.3,40.7 
				126,39.6 			"/>
			<polygon class="st0" points="179.5,9.5 180.5,13.2 184.2,14.4 181,16.5 181,20.4 177.9,18 174.3,19.1 175.6,15.5 173.4,12.4 
				177.2,12.6 			"/>
			<polygon class="st0" points="208.5,42.1 208.9,45.9 212.3,47.8 208.8,49.3 208.1,53.1 205.5,50.2 201.7,50.7 203.6,47.4 
				202,43.9 205.7,44.7 			"/>
			<polygon class="st0" points="298.2,54.6 299.9,58 303.7,58.6 300.9,61.2 301.6,65 298.2,63.2 294.8,65 295.4,61.2 292.7,58.6 
				296.5,58 			"/>
			<polygon class="st0" points="265.3,49.9 267.8,52.8 271.6,52.4 269.6,55.7 271.2,59.2 267.5,58.3 264.6,60.9 264.3,57.1 
				261,55.2 264.5,53.7 			"/>
			<polygon class="st4" points="331.8,74.5 321.7,80.5 318.3,75.9 305,86.7 305,80.9 278.6,93.6 344.4,93.6 			"/>
			<path class="st4" d="M86.5,71l0.3,7.9L71.2,67L65.5,77l-3.1-8.6c0,0-19,4.5-30.2,10.6c-0.7,0.4-8.8,14.6-8.8,14.6h139.4l-38-11.7
				L86.5,71z"/>
			<polygon class="st5" points="210.2,71.1 215.3,80.5 198.9,69 202.8,83.8 191.5,68.8 185.5,81.7 182.9,67.1 134.2,79.3 
				176.4,93.6 253.9,93.6 224.3,77.4 			"/>
			<g>
				<polygon class="st6" points="359,211.9 354,211.9 353.4,223.6 359.5,223.6 				"/>
				<path class="st5" d="M362,215.9h-11.1c-2.1,0-3.6-2-3.2-4l6.9-29.2c0.4-1.9,3.1-1.9,3.5,0l7,29.2
					C365.7,213.9,364.2,215.9,362,215.9z"/>
			</g>
			<g>
				<polygon class="st6" points="334.8,171 331.4,171 331,178.9 335.2,178.9 				"/>
				<path class="st4" d="M336.8,173.7h-7.5c-1.4,0-2.5-1.3-2.1-2.7l4.7-19.7c0.3-1.3,2.1-1.3,2.4,0L339,171
					C339.3,172.4,338.3,173.7,336.8,173.7z"/>
			</g>
			<g>
				<polygon class="st6" points="304,247.9 299.2,247.9 298.7,259.3 304.6,259.3 				"/>
				<path class="st4" d="M307.1,251.8h-10.9c-2,0-3.6-1.9-3.1-3.9l6.7-28.5c0.4-1.8,3-1.8,3.4,0l6.9,28.5
					C310.6,249.8,309.1,251.8,307.1,251.8z"/>
			</g>
			<g>
				<polygon class="st6" points="315.8,220.7 312.2,220.7 311.8,229.1 316.2,229.1 				"/>
				<path class="st5" d="M318,223.6h-8c-1.5,0-2.6-1.4-2.3-2.9l5-21.1c0.3-1.3,2.2-1.3,2.5,0l5.1,21.1
					C320.6,222.1,319.5,223.6,318,223.6z"/>
			</g>
			<path class="st0" d="M129.5,57.8c-0.7,0-1.3-0.4-1.6-1.1c-0.4-0.9,0.1-1.9,1-2.3c9.6-3.9,19.7-6.7,30.1-8.4
				c12.1-2,24.4-2.4,36.5-1.2c1,0.1,1.7,0.9,1.6,1.9c-0.1,1-0.9,1.7-1.9,1.6c-11.8-1.1-23.8-0.7-35.6,1.2c-10.1,1.7-20,4.4-29.3,8.2
				C129.9,57.7,129.7,57.8,129.5,57.8z"/>
			<path class="st0" d="M94,61.8c-0.5,0-1.1-0.2-1.4-0.7c-0.6-0.8-0.4-1.9,0.4-2.4c8.1-5.9,16.9-11,25.9-15.2c0.9-0.4,1.9,0,2.3,0.8
				c0.4,0.9,0,1.9-0.8,2.3c-8.9,4.1-17.4,9.1-25.4,14.9C94.7,61.7,94.3,61.8,94,61.8z"/>
			<path class="st0" d="M259.4,52.3c-0.3,0-0.6-0.1-0.9-0.2c-18.2-10.3-38-16.5-58.9-18.6c-1-0.1-1.7-1-1.6-1.9c0.1-1,1-1.7,1.9-1.6
				c21.3,2.2,41.6,8.6,60.2,19.1c0.8,0.5,1.1,1.5,0.7,2.4C260.6,52,260,52.3,259.4,52.3z"/>
			<path class="st0" d="M177.7,359.7c-8.6,0-21.1-0.8-33.5-4.6c-0.9-0.3-1.4-1.3-1.2-2.2c0.3-0.9,1.3-1.4,2.2-1.2
				c20.7,6.3,42.8,4,43,3.9c103.4-4.2,140.9-82.1,141.3-82.9c0.4-0.9,1.4-1.3,2.3-0.8c0.9,0.4,1.3,1.4,0.8,2.3
				c-0.4,0.8-9.7,20.4-32.1,40.9c-20.7,18.8-57,41.8-112,44C188.1,359.3,184,359.7,177.7,359.7z"/>
			<path class="st0" d="M161.5,344.1c-20-2-61.8-10.1-94-42.8c-0.7-0.7-0.7-1.8,0-2.5c0.7-0.7,1.8-0.7,2.5,0
				c42.4,43.2,102.3,42.4,102.9,42.4c1,0,1.8,0.7,1.8,1.7c0,1-0.7,1.8-1.7,1.8C172.9,344.7,168.6,344.8,161.5,344.1z"/>
			<g>
				<path class="st0" d="M344,106.5c-0.2,0-0.4-0.1-0.6-0.1c0.2-0.2,0.3-0.3,0.5-0.5c1.8-2.1,2.4-5.7,2-8.1
					c-0.3-2.1-1.3-3.2-2.1-3.6c-0.7-0.4-1.5-0.7-2.2-0.7c-0.3-0.6-0.8-1-1.3-1.4c-0.7-0.5-1.5-0.7-2.4-0.7c-2.8,0-6.1,2.6-7.5,4.3
					c-0.9,1.1-1.6,2.3-2.1,3.6c-0.5-1.1-1.1-2.1-1.8-3c-1.8-2.3-5.4-3.6-7.9-3.6c-1.9,0-3,0.7-3.6,1.4c-0.6,0.6-1,1.3-1.1,2
					c-0.6,0.2-1.1,0.5-1.6,1c-2.9,2.7-0.3,8.2,1.5,10.5c0.4,0.5,0.9,1,1.4,1.5c-0.7,0.1-1.3,0.3-1.9,0.5c-2.6,0.9-5,3.7-5.9,5.9
					c-0.8,2-0.5,3.4-0.1,4.2c0.4,0.8,0.9,1.3,1.5,1.7c0,0.7,0.2,1.3,0.4,1.8c0.6,1.3,2,2.8,5.8,2.8c1.5,0,3.2-0.3,4.5-0.7
					c0.7-0.2,1.3-0.5,2-0.9c-0.1,0.6-0.2,1.1-0.2,1.7c-0.1,2.7,1.5,5.7,3.1,7.3c1.2,1.3,2.5,1.9,3.8,1.9l0.3,0l0.1,0
					c0.9-0.1,1.6-0.4,2.2-0.8c0.5,0.2,1.1,0.3,1.6,0.3l0.3,0c4-0.2,5.6-6.1,5.7-8.9c0.1-1.3-0.1-2.6-0.4-3.8c1.1,0.5,2.3,1,3.4,1.2
					c0.5,0.1,1.1,0.2,1.6,0.2c3.5,0,8.5-2.1,8.8-5.6c0.1-0.9-0.1-1.6-0.4-2.3c0.4-0.6,0.5-1.2,0.6-1.8
					C352.3,109.8,346.8,107.1,344,106.5z"/>
				<path class="st7" d="M323.6,126.6c-0.1,2.6,2.6,6.8,4.6,6.6c2-0.2,1.2-2,2.1-2c0.9-0.1,0.1,1.6,2.1,1.5c2-0.1,3.2-4.3,3.3-6.5
					c0.2-5.7-4.5-11.1-6.2-10.9C327.7,115.4,323.8,121.3,323.6,126.6z"/>
				<path class="st7" d="M313.9,111.8c-2.5,0.8-5.5,4.8-4.6,6.6c0.9,1.8,2.2,0.4,2.6,1.2c0.4,0.8-1.4,0.7-0.7,2.5
					c0.8,1.8,5.2,1.5,7.3,0.8c5.4-1.8,8.8-8.1,8-9.7C325.8,111.6,319,110.1,313.9,111.8z"/>
				<path class="st7" d="M324.4,97.8c-1.6-2.1-6.4-3.5-7.8-2.1c-1.4,1.5,0.4,2.3-0.3,2.9c-0.6,0.6-1.1-1.1-2.6,0.2
					c-1.4,1.3,0.4,5.4,1.7,7.1c3.5,4.5,10.6,5.5,11.8,4.3C328.6,109,327.8,102,324.4,97.8z"/>
				<path class="st7" d="M342,104.3c1.7-2,2.2-7,0.5-8c-1.7-1.1-2.1,0.8-2.9,0.3c-0.8-0.5,0.9-1.3-0.7-2.5c-1.6-1.1-5.2,1.4-6.6,3.1
					c-3.7,4.3-3.3,11.5-1.8,12.4C331.9,110.6,338.5,108.4,342,104.3z"/>
				<path class="st7" d="M341.7,121c2.5,0.6,7.2-1.3,7.4-3.3c0.2-2-1.7-1.5-1.6-2.4c0.1-0.9,1.6,0.2,1.9-1.8c0.3-1.9-3.6-4-5.8-4.5
					c-5.6-1.3-11.7,2.3-11.9,4.1C331.4,114.9,336.4,119.8,341.7,121z"/>
			</g>
			<g>
				<path class="st0" d="M359,135.8c-0.1,0-0.2,0-0.3-0.1c0.1-0.1,0.2-0.2,0.3-0.3c1-1.2,1.4-3.3,1.2-4.7c-0.2-1.2-0.8-1.8-1.2-2.1
					c-0.4-0.3-0.8-0.4-1.3-0.4c-0.2-0.3-0.5-0.6-0.7-0.8c-0.4-0.3-0.9-0.4-1.4-0.4c-1.6,0-3.5,1.5-4.3,2.5c-0.5,0.6-0.9,1.3-1.2,2.1
					c-0.3-0.6-0.7-1.2-1-1.7c-1-1.3-3.1-2.1-4.5-2.1c-1.1,0-1.7,0.4-2.1,0.8c-0.3,0.4-0.6,0.7-0.6,1.2c-0.3,0.1-0.6,0.3-0.9,0.6
					c-1.7,1.6-0.2,4.7,0.8,6c0.2,0.3,0.5,0.6,0.8,0.9c-0.4,0.1-0.8,0.2-1.1,0.3c-1.5,0.5-2.9,2.1-3.4,3.4c-0.5,1.1-0.3,1.9,0,2.4
					c0.2,0.4,0.5,0.8,0.9,1c0,0.4,0.1,0.7,0.2,1.1c0.3,0.7,1.2,1.6,3.3,1.6c0.9,0,1.9-0.1,2.6-0.4c0.4-0.1,0.8-0.3,1.1-0.5
					c-0.1,0.3-0.1,0.7-0.1,1c-0.1,1.5,0.9,3.3,1.8,4.2c0.7,0.7,1.5,1.1,2.2,1.1l0.2,0l0.1,0c0.5-0.1,0.9-0.2,1.2-0.5
					c0.3,0.1,0.6,0.2,0.9,0.2l0.1,0c2.3-0.1,3.2-3.5,3.3-5.1c0-0.7-0.1-1.5-0.2-2.2c0.7,0.3,1.3,0.6,1.9,0.7
					c0.3,0.1,0.6,0.1,0.9,0.1c2,0,4.9-1.2,5-3.2c0-0.5,0-0.9-0.2-1.3c0.2-0.3,0.3-0.7,0.4-1C363.8,137.6,360.6,136.1,359,135.8z"/>
				<path class="st7" d="M347.3,147.1c-0.1,1.5,1.5,3.9,2.6,3.8c1.1-0.1,0.7-1.1,1.2-1.2c0.5,0,0.1,0.9,1.2,0.9
					c1.1-0.1,1.9-2.5,1.9-3.8c0.1-3.3-2.6-6.4-3.6-6.3C349.7,140.6,347.4,144,347.3,147.1z"/>
				<path class="st7" d="M341.7,138.8c-1.4,0.5-3.1,2.8-2.6,3.8c0.5,1,1.3,0.2,1.5,0.7c0.2,0.5-0.8,0.4-0.4,1.4c0.4,1,3,0.8,4.2,0.4
					c3.1-1,5-4.7,4.6-5.6C348.6,138.7,344.6,137.8,341.7,138.8z"/>
				<path class="st7" d="M347.8,130.7c-0.9-1.2-3.7-2-4.5-1.2c-0.8,0.8,0.2,1.3-0.2,1.7c-0.4,0.4-0.6-0.6-1.5,0.1
					c-0.8,0.8,0.2,3.1,1,4.1c2,2.6,6.1,3.2,6.8,2.5C350.2,137.2,349.7,133.2,347.8,130.7z"/>
				<path class="st7" d="M357.9,134.5c1-1.1,1.2-4,0.3-4.6c-1-0.6-1.2,0.5-1.7,0.2c-0.4-0.3,0.5-0.8-0.4-1.4c-0.9-0.7-3,0.8-3.8,1.8
					c-2.1,2.5-1.9,6.6-1,7.1C352,138.1,355.9,136.8,357.9,134.5z"/>
				<path class="st7" d="M357.7,144c1.5,0.3,4.1-0.7,4.2-1.9c0.1-1.1-1-0.9-0.9-1.4c0.1-0.5,0.9,0.1,1.1-1c0.2-1.1-2.1-2.3-3.3-2.6
					c-3.2-0.7-6.7,1.3-6.8,2.3C351.8,140.5,354.7,143.3,357.7,144z"/>
			</g>
			<g>
				<path class="st5" d="M30.8,182.7c-1.7,11.4,10.8,25.6,10.8,25.6s14.8-10.2,16.4-21.6c1.7-11.4-9.5-24.1-9.5-24.1
					S32.5,171.3,30.8,182.7z"/>
				<path class="st0" d="M41.8,205.5c-0.1,0.1-0.2,0.1-0.3,0.1c-0.4,0-0.8-0.3-0.9-0.7c-1-10.3,1.6-30.2,6.5-39.4
					c0.2-0.4,0.7-0.5,1.1-0.3c0.4,0.2,0.5,0.7,0.3,1.1c-4.7,8.9-7.3,28.3-6.3,38.5C42.2,205.1,42.1,205.4,41.8,205.5z"/>
				<path class="st0" d="M41.8,194.8c-0.3,0.2-0.7,0.1-1-0.1l-5.7-5.4c-0.3-0.3-0.3-0.8,0-1.2c0.3-0.3,0.8-0.3,1.2,0l5.3,5l11-6.9
					c0.4-0.2,0.9-0.1,1.1,0.3c0.2,0.4,0.1,0.9-0.3,1.1L41.8,194.8C41.8,194.8,41.8,194.8,41.8,194.8z"/>
				<path class="st0" d="M52.1,177.7C52.1,177.7,52.1,177.7,52.1,177.7l-9.6,5.5c-0.4,0.2-0.8,0.1-1.1-0.2l-4.6-6.4
					c-0.3-0.4-0.2-0.9,0.2-1.1c0.4-0.3,0.9-0.2,1.1,0.2l4.2,5.8l9-5.1c0.4-0.2,0.9-0.1,1.1,0.3C52.6,176.9,52.5,177.4,52.1,177.7z"
					/>
			</g>
			<g>
				<path class="st0" d="M136,321.9l-3-0.8c-1.6-0.4-3.2-0.6-4.8-0.6c1.2-3.2,1.6-6.6,1.1-10.1l-0.4-3l-2.8,1.3
					c-2.3,1.1-4.4,2.5-6.1,4.3c-1.3-3.4-3.3-6.4-6-8.8l-2.3-2l-1.3,2.8c-1.6,3.3-2.3,6.9-2.1,10.5c-4.5-1.9-9.3-2.5-14.2-1.8l-3,0.4
					l1.3,2.8c2,4.5,5.2,8.2,9.2,10.9c-3.1,1.8-5.7,4.4-7.7,7.5l-1.6,2.6l3,0.8c3.5,1,7.1,1,10.6,0.3c-0.6,2.4-0.7,5-0.3,7.5l0.4,3
					l2.8-1.3c3.2-1.4,5.8-3.6,7.9-6.4c0.9,1.4,1.9,2.6,3.1,3.7l2.3,2l1.3-2.8c1.1-2.4,1.7-5,1.6-7.6c1.3,1.6,2.4,3.5,3.4,5.9
					c0.6,1.4,2.2,2.2,3.8,1.9c1.1-0.2,2-0.9,2.5-1.8c0.4-0.8,0.5-1.7,0.2-2.6c-1.3-3.7-3.9-7.1-7.4-9.8c2.9-1.4,5.3-3.6,7-6.4
					L136,321.9z"/>
				<path class="st8" d="M122.6,330.5l-0.6-0.3c1.1-0.2,2.1-0.4,3.2-0.8c3.1-1.2,5.6-3.4,7.2-6c-2.7-0.7-5.6-0.7-8.4,0.1
					c0.3-0.5,0.6-1,0.9-1.5c1.9-3.6,2.5-7.5,2-11.2c-3.3,1.5-6.2,4.1-8.1,7.5c-0.1-0.5-0.1-0.9-0.2-1.4c-0.9-4.4-3.2-8.1-6.3-10.9
					c-1.8,3.8-2.4,8.1-1.5,12.5c0.1,0.4,0.2,0.8,0.3,1.2c-0.5-0.3-1.1-0.7-1.6-1c-4.8-2.6-10.2-3.5-15.2-2.7
					c2.1,4.6,5.7,8.7,10.6,11.3c0.6,0.3,1.1,0.6,1.7,0.8c-0.4,0.1-0.8,0.3-1.2,0.4c-4.2,1.6-7.5,4.5-9.7,8.1c4,1.1,8.4,1,12.6-0.7
					c0.4-0.2,0.9-0.4,1.3-0.6c-1.8,3.5-2.4,7.3-1.9,10.9c3.4-1.6,6.4-4.2,8.3-7.8c0.3-0.5,0.5-1.1,0.8-1.6c0.8,2.8,2.4,5.2,4.4,7.1
					c1.3-2.8,1.8-6.1,1.1-9.4c-0.2-1.1-0.6-2.1-1.1-3.1l0.6,0.3c4.1,2.2,6.7,6.2,8.6,10.5c0.5,1.2,2.6,0.2,2.2-0.9
					C131,336.6,127,332.8,122.6,330.5z"/>
			</g>
			<g>
				<g>
					<g>
						<path class="st3" d="M155.3,149.2l0-9.5c-2.9,1.8-11.9,7.5-20.2,14.4l-3.3-12.1l-8.4,0l4.9,18.3c-5.3,5.4-9.2,11-9.1,15.8
							c0.1,3,0.8,4.9,3.2,6.6c2.9,2.1,7.8,3.1,12.3,3.1c7.6,0.3,15.2,0,18.6,0l-0.1-7.3c-7.6,0-20.7,0.5-25.3-2.1
							c-0.4-0.2-0.6-0.8-0.6-1.3C127.2,169.3,139.1,158.1,155.3,149.2z"/>
						<g>
							<path class="st3" d="M211.1,212.7h-4.5l4.8-10.5l-8.7,0l-4.8,10.5h-10.1v8.2h6.4l-10,22l8.8,0l10-21.9h6.3
								c4.6,0,3.2,4.4,2.1,6.8c-2,4.4-5.4,12-8.1,17.6l-4.6,0l-2.8,6.1l13.4,0l0,0c2.1-4.2,7.4-16,10.4-22.8
								c1.6-3.6,2.8-8.1,0.7-11.2C217,212.5,211.1,212.7,211.1,212.7z"/>
							<path class="st3" d="M234.3,205.3c-4.1-4.5-12.7-3.4-12.7-3.4s-2.1,8.5,1.9,13c4.1,4.5,12.7,3.4,12.7,3.4
								S238.4,209.8,234.3,205.3z"/>
						</g>
						<g>
							<g>
								<path class="st3" d="M176.9,225.8c-1.5-3.5-8-10.5-20.6-6.4l7.8-17.2l-8.7,0l-4,8.8l0,0l-5.2,11.3c-1-1.6-2.2-2.8-3.7-3.6
									c-5.7-2.9-9.6-0.8-11.3,0v8c3.1-1.7,5.7-2.4,8-1.4c0.3,0.1,3.2,1.4,3.4,1.9c-7.5,3.6-10.6,4.8-12.9,10.9
									c-1.2,3.2,0.6,7.6,3.7,8.9c0.4,0.2,0.8,0.3,1.3,0.5l-1.9,4.1l8.8,0l4-8.8l0,0l5.9-12.9c1.1-0.6,2.2-1.2,3.4-1.7
									c4-1.6,10.8-4.6,14.4,0.8c2.8,4.1,0.8,12.8-6.9,15l0.1,7.3C175.4,249.9,180.7,234.7,176.9,225.8z M136.6,241.4
									c0-0.1-1-0.2-0.9-2c0.1-1.8,2.3-4.3,5.3-5.5l-3.4,7.5C137.2,241.4,136.9,241.4,136.6,241.4z"/>
								<path class="st3" d="M224.6,161.1c-1.5-5.8-6.4-10.4-12.7-12c-1.9-0.5-5.4-0.8-8.4-0.9c0.1-0.2,0.1-0.3,0.2-0.5l6.1-13.4
									l-8.7,0l-2.5,5.5l0,0c0,0.1,0,0.1-0.1,0.2l-3.9,8.7c-3.1,0.4-6.2,0.9-9.2,1.7c-0.3-3.9-0.4-7.6,0-10.6h-8
									c-0.5,3.9-0.3,8.8,0.1,13.5c-4,2-7.3,4.7-9.2,8.1c-3.5,6.5-3.4,12.8,0.4,16.5c3.9,3.8,10.4,3.8,17.3-0.2c3.6-2.1,6-5,8-8.4
									l0.1-0.1l0.2-0.5c2.2-3.9,3.8-8.3,5.7-12.6c3.2-0.1,7.6,0.2,9.9,0.8c3.5,0.9,6.1,3.3,6.9,6.2c0.7,2.5-0.1,5-2.2,7.1
									c-6.2,6-13.9,7.5-14,7.5l0,8c0.5-0.1,11.7-1.9,19.7-9.7C224.4,172,226,166.5,224.6,161.1z M190.5,157.4l-3.3,7.3
									c-0.3-1.9-0.7-4-1-6.2C187.5,158.1,189,157.7,190.5,157.4z M174.2,172.1c-0.7-0.7-1-3.1,1.1-6.8c0.6-1.2,1.7-2.3,3.1-3.2
									c0.6,3.9,1.2,7.3,1.6,9.4C176.9,172.9,174.9,172.7,174.2,172.1z"/>
							</g>
							<g>
								<path class="st3" d="M104,212.7h-4.5l4.8-10.5l-8.7,0l-4.8,10.5H80.6v8.2H87l-10,22l8.8,0l10-21.9h6.3
									c4.6,0,3.2,4.4,2.1,6.8c-2,4.4-5.4,12-8.1,17.6l-4.6,0l-2.8,6.1l13.4,0l0,0c2.1-4.2,7.4-16,10.4-22.8
									c1.6-3.6,2.8-8.1,0.7-11.2C109.9,212.5,104,212.7,104,212.7z"/>
								<path class="st3" d="M125.3,205c-4.1-4.6-13-3.4-13-3.4s-2.1,8.7,2,13.3s13,3.4,13,3.4S129.4,209.6,125.3,205z"/>
							</g>
						</g>
						<g>
							<rect x="261.3" y="121.1" class="st3" width="6.1" height="11.9"/>
							<rect x="269" y="121.1" class="st3" width="6.1" height="11.9"/>
							<path class="st3" d="M260.5,112.6h-8.6c-5.8,13.6-17,36.8-18.5,40.3c-1.6,3.8-0.7,6.6,2,11.3c2.2,3.8,12.4,21.5,12.4,21.5
								l9.4,0c0,0-12.5-21.7-14.6-25.5c-1.7-3-1.6-3.7-1.2-5.8C242,151.6,253.6,126.9,260.5,112.6z"/>
						</g>
					</g>
					<path class="st3" d="M110.9,128l-1,2.6c-10.7,26.7-21.1,39.5-31.7,39c-3-0.1-5.1-1.2-6.3-3c-1.2-1.9-1.1-4.3-0.6-5.4
						c0.6-1.3,15.7-34.5,23.6-51.8l2.6-5.8H84.7H69.1c-1.4,2.7-2.8,5.4-4.1,8.2h15.4h4.4c-6.1,13.3-20.4,44.8-21.1,46.2
						c-1.4,3.3-1.6,8.5,1.2,13c2.6,4.2,7.2,6.6,12.8,6.9c0.3,0,0.7,0,1,0c13.8,0,25.8-13.3,37.6-41.6h14.4V128H110.9z"/>
				</g>
				<g>
					<rect x="275" y="142.5" class="st3" width="8.2" height="22.5"/>
					<path class="st3" d="M303.3,185.3v-59.5h-8.2v59.6c0,0.2,0.2,18.2-11.4,22.1c-3.3,1.1-5,1.7-8.3,2.3l-3.3,7.6
						c3.7-0.5,8.2-1.5,13.5-3.1C303.6,209.1,303.4,186.2,303.3,185.3z"/>
				</g>
				<path class="st3" d="M289.8,229.8l-8.7,0c1-2.3,2.1-4.5,3-6.5h-8.6c-1,2.2-2,4.4-2.9,6.5l-6.3,0l-6.6,0.1
					c3.9-7.7,6.7-15.3,2.1-17.1c-1.6-0.7-3.8-0.9-8.2-0.9c-5.9,0-11.2,0-11.7,0l0,7.8c0.1,0,6-0.1,11.7-0.2c2.7-0.1,1.4,2.8,1.4,2.8
					c-0.8,1.6-1.7,3.9-3.9,7.5l-4.3,0.4c-8.1,1-13.1,5.6-13.4,12.6c-0.3,6.7,3.1,8.1,5.2,8.6c0.8,0.2,2,0.3,2.7,0.3
					c3.2,0,6.6-1.1,9.5-5.3c1.5-2.1,2.9-3.9,5.4-8.5l7.5,0.1l5.3,0c-3.1,6.7-5.3,11.7-6.2,13.4l8.6,0c1.8-3.9,3.9-8.7,6-13.4l9.8,0
					C288.2,235.2,289,232.5,289.8,229.8z M242,244.2c-1.4-0.2-1.6-1.5-1.6-2.3c0-3.6,3-4.7,7.7-4.7
					C245.5,242.2,243.6,244.2,242,244.2z"/>
			</g>
			<g>
				<path class="st0" d="M194.6,356.7c-6.6,2.6-14.6,2.2-14.9,2.1l-2.2-0.1l-0.1-2.2c0-0.6-0.6-14.4,6-20.6c1.2-1.1,2.7-2.1,4.5-2.8
					c6.8-2.7,15.7-1.2,16.1-1.2l1.9,0.3l0.1,2c0,0.5,0.6,13-6,19.2C198.5,354.8,196.7,355.9,194.6,356.7
					C194.6,356.7,194.6,356.7,194.6,356.7z"/>
				<path class="st9" d="M185,337.7c-5.8,5.5-5.2,18.7-5.2,18.7s12.5,0.8,18.4-4.7c5.8-5.5,5.3-17.3,5.3-17.3S190.9,332.2,185,337.7
					z"/>
				<path class="st0" d="M181.4,354.9c-0.2,0.1-0.4,0.1-0.5,0c-0.3-0.2-0.3-0.5-0.2-0.8c3.9-6.1,14-15.9,20.6-18.8
					c0.3-0.1,0.6,0,0.8,0.3c0.1,0.3,0,0.6-0.3,0.8c-6.5,2.8-16.3,12.3-20.1,18.3C181.6,354.8,181.5,354.9,181.4,354.9z"/>
				<path class="st0" d="M195.6,350.1c-0.1,0-0.2,0-0.3,0l-9.5-1.1c-0.3,0-0.5-0.2-0.5-0.5l-0.8-5.4c0-0.3,0.2-0.6,0.5-0.6
					c0.3,0,0.6,0.2,0.6,0.5l0.8,5l9,1c0.3,0,0.5,0.3,0.5,0.6C195.9,349.9,195.8,350,195.6,350.1z"/>
				<path class="st0" d="M199.2,344.1c-0.1,0-0.2,0-0.3,0l-7.7-1.2c-0.3,0-0.5-0.3-0.5-0.6l0.2-5.5c0-0.3,0.3-0.6,0.6-0.5
					c0.3,0,0.6,0.3,0.5,0.6l-0.2,5l7.2,1.1c0.3,0,0.5,0.3,0.5,0.7C199.5,343.9,199.4,344.1,199.2,344.1z"/>
			</g>
			<g>
				<path class="st4" d="M58.3,204.3c-7.5,1-14.2,11.3-14.2,11.3s9,7.5,16.5,6.5c7.5-1,13.5-10.3,13.5-10.3S65.8,203.3,58.3,204.3z"
					/>
				<path class="st0" d="M46.1,215.4c-0.2,0-0.3-0.2-0.4-0.3c-0.1-0.3,0-0.6,0.3-0.7c6.3-2.5,19.3-4.4,26-2.9
					c0.3,0.1,0.5,0.3,0.4,0.6c-0.1,0.3-0.3,0.5-0.6,0.4c-6.5-1.4-19.1,0.4-25.3,2.9C46.3,215.4,46.2,215.4,46.1,215.4z"/>
				<path class="st0" d="M59.5,219.5c-0.1,0-0.2-0.1-0.2-0.1l-6.6-6c-0.2-0.2-0.2-0.4-0.1-0.6l2.4-4.6c0.1-0.3,0.5-0.4,0.7-0.2
					c0.3,0.1,0.4,0.5,0.2,0.7l-2.2,4.2l6.3,5.7c0.2,0.2,0.2,0.5,0,0.8C59.9,219.5,59.7,219.5,59.5,219.5z"/>
				<path class="st0" d="M65.5,216.9c-0.1,0-0.2-0.1-0.2-0.1l-5.2-5.1c-0.2-0.2-0.2-0.5,0-0.7l3.2-4c0.2-0.2,0.5-0.3,0.8-0.1
					c0.2,0.2,0.3,0.5,0.1,0.8l-2.9,3.7L66,216c0.2,0.2,0.2,0.5,0,0.8C65.9,216.9,65.7,217,65.5,216.9z"/>
			</g>
			<g>
				<path class="st0" d="M165.4,337c-7.2,0-12.7-1.5-16.5-4.3c-8.4-6.4-9.2-21-9.3-21.6l-0.1-2l1.9-0.5c0.2-0.1,5.4-1.5,11.3-1.5
					c5.5,0,9.8,1.2,13,3.6c8.4,6.4,9.3,22.5,9.3,23.2l0.1,2.2l-2.2,0.4C172.9,336.5,169.6,337,165.4,337z"/>
				<path class="st8" d="M164.2,312.7c7.6,5.8,8.4,21.4,8.4,21.4s-14.6,2.5-22.2-3.3c-7.6-5.8-8.3-19.7-8.3-19.7
					S156.7,306.9,164.2,312.7z"/>
				<path class="st0" d="M170.7,332.6c-0.2,0-0.4-0.1-0.5-0.3c-5.2-6.6-18-16.6-25.9-19.1c-0.4-0.1-0.6-0.5-0.4-0.8
					c0.1-0.4,0.5-0.5,0.8-0.4c8.2,2.6,21.2,12.9,26.6,19.6c0.2,0.3,0.2,0.7-0.1,0.9C171,332.5,170.9,332.6,170.7,332.6z"/>
				<path class="st0" d="M153.5,328.6c-0.3,0-0.6-0.2-0.7-0.5c-0.1-0.4,0.2-0.7,0.5-0.8l10.5-2.3l0.3-6c0-0.4,0.4-0.7,0.7-0.6
					c0.4,0,0.7,0.3,0.6,0.7l-0.3,6.5c0,0.3-0.2,0.6-0.5,0.6l-11,2.4C153.6,328.6,153.5,328.6,153.5,328.6z"/>
				<path class="st0" d="M148.5,322c-0.3,0-0.6-0.2-0.7-0.5c-0.1-0.4,0.1-0.7,0.5-0.8l8.3-2.2l-0.9-5.8c-0.1-0.4,0.2-0.7,0.6-0.8
					c0.4-0.1,0.7,0.2,0.8,0.6l0.9,6.4c0.1,0.3-0.2,0.7-0.5,0.8l-8.9,2.3C148.6,322,148.6,322,148.5,322z"/>
			</g>
			<g>
				<path class="st0" d="M284.6,307.8c-1.2,0-2.3-0.6-3.1-1.6c-0.7-1-1-2.2-1-3.4c-0.3,0.1-0.5,0.1-0.8,0.1c-1.3,0-2.5-0.7-3.2-1.8
					c-1.1,0-2.2-0.6-2.9-1.5c-0.3-0.3-0.5-0.7-0.6-1.1c-0.9,0.5-2,0.9-3,0.9c-1.5,0-2.7-0.7-3.4-1.9c-0.6-1.1-0.7-2.3-0.1-3.5
					c0.5-1.1,1.4-2,2.5-2.6c-0.7-0.8-1.1-1.9-1-3.1c0.1-0.5,0.2-0.9,0.4-1.3c-0.2-0.4-0.3-0.8-0.4-1.3c-0.2-1.1,0.2-2.2,1-3.1
					c-1.1-0.6-2-1.5-2.5-2.6c-0.5-1.1-0.5-2.4,0.1-3.5c0.7-1.2,1.9-1.9,3.4-1.9c1.1,0,2.1,0.3,3,0.9c0.1-0.4,0.3-0.8,0.6-1.1
					c0.7-0.9,1.8-1.4,2.9-1.5c0.7-1.1,1.9-1.8,3.2-1.8c0.3,0,0.5,0,0.8,0.1c0-1.2,0.3-2.5,1-3.4c0.7-1,1.9-1.6,3.1-1.6
					c1.2,0,2.3,0.6,3.1,1.6c0.7,1,1,2.2,1,3.4c0.3-0.1,0.5-0.1,0.8-0.1c1.3,0,2.5,0.7,3.2,1.8c1.1,0,2.2,0.6,2.9,1.5
					c0.3,0.3,0.5,0.7,0.6,1.1c0.9-0.5,2-0.9,3-0.9c1.5,0,2.7,0.7,3.4,1.9c0.6,1.1,0.7,2.3,0.1,3.5c-0.5,1.1-1.4,2-2.5,2.6
					c0.7,0.8,1.1,1.9,1,3.1c-0.1,0.5-0.2,0.9-0.4,1.3c0.2,0.4,0.3,0.8,0.4,1.3c0.2,1.1-0.2,2.2-1,3.1c1.1,0.6,2,1.5,2.5,2.6
					c0.5,1.1,0.5,2.4-0.1,3.5c-0.7,1.2-1.9,1.9-3.4,1.9l0,0c-1.1,0-2.1-0.3-3-0.9c-0.1,0.4-0.3,0.8-0.6,1.1
					c-0.7,0.9-1.8,1.4-2.9,1.5c-0.7,1.1-1.9,1.8-3.2,1.8c-0.3,0-0.5,0-0.8-0.1c0,1.2-0.3,2.5-1,3.4
					C286.9,307.2,285.8,307.8,284.6,307.8z M284.6,286.9c-0.1,0-0.1,0.1-0.1,0.1h0.2L284.6,286.9z"/>
				<path class="st1" d="M296.5,292.5c-2.5-0.5-0.8-1.9,1.1-2.4c1.9-0.5,1.2-3.3-0.8-2.6c-2,0.7-4.1,3-5.1,2.4
					c-0.8-0.5-2.2-1.3-2.8-1.6c0.1-0.4,0.2-0.9,0.2-1.4c0-0.5-0.1-0.9-0.2-1.4c0.5-0.3,1.9-1.1,2.8-1.6c1-0.6,3.1,1.7,5.1,2.4
					c2,0.7,2.8-2.1,0.8-2.6c-1.9-0.5-3.6-1.9-1.1-2.4c2.5-0.5,4.7-2.3,3.9-3.7c-0.8-1.4-3.4-0.3-5.1,1.6c-1.7,1.9-2-0.2-1.5-2.2
					c0.5-1.9-2.2-2.7-2.6-0.6c-0.4,2.1,0.6,5-0.5,5.6c-0.8,0.5-2.2,1.3-2.8,1.6c-0.6-0.7-1.4-1.2-2.4-1.4c0-0.6,0-2.2,0-3.2
					c0-1.2,3-1.8,4.6-3.2c1.6-1.4-0.4-3.4-1.8-2c-1.4,1.4-3.4,2.2-2.6-0.2c0.8-2.4,0.4-5.2-1.2-5.2c-1.6,0-2,2.8-1.2,5.2
					c0.8,2.4-1.2,1.6-2.6,0.2c-1.4-1.4-3.4,0.6-1.8,2c1.6,1.4,4.6,2,4.6,3.2c0,1,0,2.6,0,3.2c-0.9,0.2-1.7,0.7-2.4,1.4
					c-0.5-0.3-1.9-1.1-2.8-1.6c-1-0.6-0.1-3.5-0.5-5.6c-0.4-2.1-3.2-1.4-2.6,0.6c0.5,1.9,0.2,4.1-1.5,2.2c-1.7-1.9-4.3-3-5.1-1.6
					s1.4,3.2,3.9,3.7c2.5,0.5,0.8,1.9-1.1,2.4c-1.9,0.5-1.2,3.3,0.8,2.6c2-0.7,4.1-3,5.1-2.4c0.8,0.5,2.2,1.3,2.8,1.6
					c-0.1,0.4-0.2,0.9-0.2,1.4c0,0.5,0.1,0.9,0.2,1.4c-0.5,0.3-1.9,1.1-2.8,1.6c-1,0.6-3.1-1.7-5.1-2.4c-2-0.7-2.8,2.1-0.8,2.6
					c1.9,0.5,3.6,1.9,1.1,2.4c-2.5,0.5-4.7,2.3-3.9,3.7c0.8,1.4,3.4,0.3,5.1-1.6c1.7-1.9,2,0.2,1.5,2.2c-0.5,1.9,2.2,2.7,2.6,0.6
					c0.4-2.1-0.6-5,0.5-5.6c0.8-0.5,2.2-1.3,2.8-1.6c0.6,0.7,1.4,1.2,2.4,1.4c0,0.6,0,2.2,0,3.2c0,1.2-3,1.8-4.6,3.2
					c-1.6,1.4,0.4,3.4,1.8,2c1.4-1.4,3.4-2.2,2.6,0.2c-0.8,2.4-0.4,5.2,1.2,5.2c1.6,0,2-2.8,1.2-5.2c-0.8-2.4,1.2-1.6,2.6-0.2
					c1.4,1.4,3.4-0.6,1.8-2c-1.6-1.4-4.6-2-4.6-3.2c0-1,0-2.6,0-3.2c0.9-0.2,1.7-0.7,2.4-1.4c0.5,0.3,1.9,1.1,2.8,1.6
					c1,0.6,0.1,3.5,0.5,5.6c0.4,2.1,3.2,1.4,2.6-0.6c-0.5-1.9-0.2-4.1,1.5-2.2c1.7,1.9,4.3,3,5.1,1.6
					C301.3,294.8,299,293,296.5,292.5z M284.6,289.6c-1.4,0-2.6-1.2-2.6-2.6c0-1.4,1.2-2.6,2.6-2.6c1.4,0,2.6,1.2,2.6,2.6
					C287.2,288.5,286,289.6,284.6,289.6z"/>
			</g>
		</g>
		<g>
			<polygon class="st3" points="169.3,271.5 164,283.2 163.6,271.5 159.9,271.5 152.7,287.5 155.5,287.5 160.8,276 161.2,287.5 
				164.9,287.5 172.1,271.5 			"/>
			<path class="st3" d="M168.2,287.5h3.2l2.1-2.6h5.9l-0.3,2.6h3.2l1.1-16h-1.9L168.2,287.5z M175.9,282.1l4.4-5.5l-0.6,5.5H175.9z"
				/>
			<path class="st3" d="M202.4,273.8c0-0.7-0.3-1.3-0.8-1.7c-0.5-0.4-1.2-0.6-2.1-0.6h-4h-1.8h-1.2l-7.2,16h3l2.9-6.4h1.8l0.7,6.4
				h3.7l-0.8-6.6c0.4-0.1,0.8-0.2,1.2-0.4c0.9-0.4,1.6-1,2.3-1.7c0.7-0.7,1.3-1.6,1.7-2.5C202.2,275.3,202.4,274.5,202.4,273.8z
				 M198.7,276.3c-0.2,0.4-0.4,0.7-0.7,1c-0.3,0.3-0.5,0.5-0.8,0.7c-0.3,0.2-0.6,0.2-0.9,0.2h-3.8l1.7-3.8h3.8
				c0.3,0,0.6,0.1,0.7,0.2c0.2,0.2,0.2,0.4,0.2,0.7C198.9,275.6,198.8,275.9,198.7,276.3z"/>
			<path class="st3" d="M213.6,271.5l-13.4,16h3.2l2.1-2.6h5.9l-0.3,2.6h3.2l1.1-16H213.6z M207.8,282.1l4.4-5.5l-0.6,5.5H207.8z"/>
		</g>
		<g>
			<path class="st6" d="M1.5,156.8l31.8-16.4l12.9-7.9l15.4-7.8l0.4,3.3l-28.7,19.5c0,0-32.8,21.4-33.7,24L1.5,156.8z"/>
			<g>
				<path class="st1" d="M49.7,134.5c0-0.1,0-0.2-0.1-0.2l-0.9-1.9c-0.1-0.2-0.3-0.4-0.6-0.4l-2.8-0.1l-3-2.1
					c-0.3-0.2-0.7-0.1-0.9,0.2c-0.2,0.3-0.1,0.7,0.2,0.9l2.9,2.1l0.4,5.1l-0.3,1.1l-0.4,0.2c-0.3,0.1-0.5,0.5-0.4,0.9
					c0.1,0.3,0.4,0.4,0.6,0.4c0.1,0,0.2,0,0.3-0.1l0.7-0.3c0.2-0.1,0.3-0.2,0.4-0.4l0.1-0.4c0.1,0.1,0.3,0.1,0.4,0.1
					c0.2,0,0.4-0.1,0.5-0.2l0.8-0.9c0.2,0.1,0.4,0.2,0.6,0.2l1.2-0.2c0.3-0.1,0.6-0.4,0.6-0.7L49.7,134.5z M46.2,137.9l-0.3-3.5l0,0
					l0.7,0.7l0.1,2.3L46.2,137.9z M48.1,137.2l-0.1-2.5c0-0.2-0.1-0.3-0.2-0.4l-1-1.1l0.9,0l0.7,1.4l0.2,2.4L48.1,137.2z"/>
				<path class="st1" d="M37.9,142.3c0-0.1,0-0.2-0.1-0.2l-0.9-1.9c-0.1-0.2-0.3-0.4-0.6-0.4l-2.6-0.1l-4.1-6.7
					c-0.2-0.3-0.6-0.4-0.9-0.2c-0.3,0.2-0.4,0.6-0.2,0.9l4.2,6.8l0.4,5.3l-0.3,1.1l-0.4,0.2c-0.3,0.1-0.5,0.5-0.4,0.9
					c0.1,0.3,0.4,0.4,0.6,0.4c0.1,0,0.2,0,0.3-0.1l0.7-0.3c0.2-0.1,0.3-0.2,0.4-0.4l0.1-0.4c0.1,0.1,0.3,0.1,0.4,0.1
					c0.2,0,0.4-0.1,0.5-0.2l0.8-0.9c0.2,0.1,0.4,0.2,0.6,0.2l1.2-0.2c0.3-0.1,0.6-0.4,0.6-0.7L37.9,142.3z M34.4,145.8l-0.3-3.5l0,0
					l0.7,0.7l0.1,2.3L34.4,145.8z M36.2,145.1l-0.1-2.5c0-0.2-0.1-0.3-0.2-0.4l-1-1.1l0.9,0l0.7,1.4l0.2,2.4L36.2,145.1z"/>
				<path class="st1" d="M28,111.1c0,0.1,0.2,0.9,0.2,0.9l0.3,0.5l0.5,0.3l0.6,0.6L31,114l-0.6,0.9l-1.2,0.3l-0.7,1
					c0,0-0.5,0.8-0.5,1c0,0.1-0.5,0.9-0.5,0.9s-1.1,1.3-1.1,1.4c0,0.1-1.1,1.6-1.1,1.6l-1.3,0.8l-0.8,0.5l-0.8,0.5l-0.9,0.8
					l-0.9,0.9l-0.3,0.9l-0.3,0.6l0.3,1.6l-0.6-0.5l-1.3-0.4l-1.5-0.1c0.5-7.5,5.2-11.4,5.2-11.4s5.3-5.9,5.8-6.1
					c0.2-0.1,0.5-0.3,0.8-0.5l-0.2,1.7C28.4,110.4,28,111,28,111.1z"/>
				<path class="st1" d="M16.3,126.9l0.1,0.9l0.5,0.9l0.8,0.5l0.9,0.7l-8.5,4.6c0,0-0.8-0.6-0.4-1.6c0,0-3.5,1.2-3.5,0.3
					C6.3,132.6,14.3,128.1,16.3,126.9z"/>
				<path class="st3" d="M43.7,103.7c-1.9-2.2-5.5-2.1-8-1.8c-2.4,0.3-6,5.7-6.4,6.3l0.2,0.2l0.5,0.3h1.2l0.2,0.6v0.7l0.9,0l0.7-0.1
					c2.3-1.3,4.4-3.1,6.8-3.2l0.9-0.1l1.3-0.3h1.1l1,0.6c0,0,0.2,0.1,0.3,0.4c0,0.3,0.1,0.8,0.1,1.3s0.2,0.7,0.2,0.7
					S45.6,105.9,43.7,103.7z"/>
				<path class="st9" d="M42.9,124.4"/>
				<path class="st0" d="M35.1,118.2c0,0,1.8,0.1,1.9,0.1s1.2,0.1,1.2,0.1s0.7,0,1,0c0.2,0,2.9,0.1,2.9,0.1l2.3,0.2l2.2,0l0,0
					c0,0-0.5,0.6-0.6,0.9c-0.1,0.3-0.6,0.9-0.6,0.9l-0.5,0.9c0,0-0.6,0.7-0.6,0.9c-0.1,0.2-1.2,1.2-1.2,1.2l-0.9,0.8l-1.8,0.1
					l-1.8-1.2l-0.8-0.8l-1-1.1l-1-1.3c0,0-1.1-1.1-1.2-1.3c0-0.1-0.1-0.3-0.2-0.6c0,0,0,0,0,0C34.3,118.2,35.1,118.2,35.1,118.2z"/>
				<path class="st3" d="M32.5,115.3c0.7,0,1.9,0.1,2,0.1c0.1,0,1.9,0,2.1,0c1-0.2,1.9-1.1,2-1.3c0.1-0.2,1.7-1.6,2.3-2
					c0.7-0.4,2.2-0.3,2.5,0.1c0.3,0.4,0.9,1.5,1.1,1.7c0.9,1.3,1.8,0.8,1.8,0.8l0.5,0l0,0c0.1,0.4,0.2,0.8,0.3,1.2
					c0,0.1,0,0.1,0,0.1c0,0.3-0.2,1.3-0.2,1.3l-0.2,1.7l-0.3,0.5c0,0-2.1,1.1-4,1.1c-1.9,0-5.3-0.7-5.4-0.7s-2.8-1-3-1c0,0,0,0,0,0
					C34,118.6,32.5,115.3,32.5,115.3z"/>
				<circle class="st0" cx="36.5" cy="107.6" r="1.6"/>
				<path class="st9" d="M45.4,121.5c1.3-1.5,1.6-4,1.6-4s0.1-1.1,0.2-1.3c0,0,0-0.1,0-0.1c1.2,4.9,1,11.2-5.5,15.4
					c-11.8,7.5-20.8-0.6-20.8-0.6l-2.1-0.9l-0.2,0.1l-0.9-0.7l-0.8-0.5l-0.5-0.9l-0.1-0.9c0.3-0.2,0.4-0.2,0.4-0.2s0,0,0-0.1
					l1.5,0.1l1.3,0.4l0.6,0.5l-0.3-1.6l0.3-0.6l0.3-0.9l0.9-0.9l0.9-0.8l0.8-0.5l0.8-0.5l1.3-0.8c0,0,1.1-1.5,1.1-1.6
					c0-0.1,1.1-1.4,1.1-1.4s0.5-0.7,0.5-0.9c0-0.1,0.5-1,0.5-1l0.7-1l1.2-0.3l0.6-0.7l1,1l0.3,0.2c0,0,0.1,0,0.3,0l1.2,2.7
					c0,0,5.7,4.8,7.6,5.2C43.2,123.7,44.1,123,45.4,121.5z"/>
			</g>
			<polygon class="st3" points="39.5,109.6 42.8,108.6 46.1,109.8 			"/>
			<polygon class="st3" points="46.1,109.8 43.1,110.5 39.5,109.6 			"/>
			<circle class="st3" cx="36.6" cy="107.7" r="0.9"/>
		</g>
		<g>
			<path class="st0" d="M290.5,114.6c-0.1,0-0.2,0-0.4,0.1c-2.4,0.4-5.9-0.9-7.9-4.5c-0.4-0.7-0.6-1.3-0.8-1.9
				c-3.7,0.3-6.5-1.3-7.6-4.4c-0.5-1.5-0.4-3,0.3-4.4c0.8-1.5,2.2-2.5,3.6-3.1c-0.3-0.9-0.3-1.5-0.3-1.8c0.1-3.3,2.8-5.5,4.5-6.1
				c0.3-0.1,0.6-0.2,1-0.3c1.7-0.4,3.4-0.1,4.7,0.9c0.1,0,0.1,0.1,0.2,0.2c0.9-0.8,1.9-1.3,3.1-1.5c1.2-0.3,2.5-0.2,3.8,0.1
				c1.3,0.4,3.5,1.7,4,4.8c0.1,0.8,0,1.5-0.1,2.3c2.1,0.3,3.8,1.1,4.9,2.5c1.1,1.4,1.6,3.3,1.4,5.4l0,0.4l-0.1,0.3
				c-0.1,0.4-1.5,3.7-5.2,4.5c-0.5,0.1-1,0.2-1.6,0.2c-0.8,0-1.5,0-2.1-0.1c-0.1,1.1-0.4,2.2-0.9,3.1
				C293.9,113,292.4,114.2,290.5,114.6L290.5,114.6z"/>
			<g>
				<g>
					<path class="st0" d="M270.1,101.8c-0.1,0-0.2,0-0.4,0.1c-2.4,0.4-6-0.9-8-4.6c-0.4-0.7-0.6-1.4-0.8-2c-3.8,0.3-6.7-1.3-7.8-4.4
						c-0.5-1.5-0.4-3,0.3-4.4c0.8-1.5,2.3-2.5,3.7-3.2c-0.4-0.9-0.4-1.6-0.4-1.9c0.1-3.3,2.8-5.5,4.5-6.2c0.3-0.1,0.7-0.2,1-0.3
						c1.7-0.4,3.4-0.1,4.8,0.9c0.1,0.1,0.2,0.1,0.3,0.2c0.9-0.8,2-1.4,3.2-1.6c1.3-0.3,2.6-0.2,3.9,0.1c1.3,0.4,3.6,1.7,4,4.8
						c0.1,0.8,0,1.6-0.2,2.4c2.2,0.3,3.9,1.1,5.1,2.5c1.1,1.4,1.6,3.3,1.4,5.5l0,0.4l-0.1,0.3c-0.1,0.4-1.5,3.7-5.3,4.6
						c-0.5,0.1-1.1,0.2-1.6,0.2c-0.9,0-1.6,0-2.2-0.1c-0.1,1.1-0.4,2.3-1,3.2C273.6,100.1,272,101.4,270.1,101.8
						C270.1,101.8,270.1,101.8,270.1,101.8z"/>
					<path class="st9" d="M271.9,90.9c2.1,1.1,2.6,1.5,5.9,1.5c3.2,0,4.3-2.9,4.3-2.9c0.2-2.3-0.5-4.6-4.2-5c-3.2-0.3-5.4,1-5.4,1
						c1.5-1.4,3.6-3.6,3.3-5.7c-0.3-2.2-2-2.5-2-2.5c-1.6-0.5-3.7-0.2-5,1.4c-1.3,1.6-1.1,4.1-1.1,4.1c-0.8-6.3-4.4-5.2-5.3-4.9
						c-1,0.3-2.7,1.8-2.7,3.6c-0.1,1.9,3.8,4.6,3.8,4.6s-0.9-0.9-3.3-0.7c-2.2,0.2-5.3,2-4.4,4.6c1.4,3.8,6.3,2.6,8.3,1.8
						c0,0-1.3,1.7,0.1,4.2c1.4,2.5,3.6,3.4,5.2,3.2c3.1-0.5,4.1-4.3,3.2-6.4C271.8,90.7,271.9,90.9,271.9,90.9z"/>
				</g>
				<circle class="st0" cx="266.5" cy="85.9" r="0.8"/>
				<circle class="st0" cx="266.2" cy="88.4" r="0.8"/>
				<circle class="st0" cx="268.3" cy="89.2" r="0.8"/>
				<circle class="st0" cx="270.1" cy="87.5" r="0.8"/>
				<circle class="st0" cx="268.9" cy="85.9" r="0.8"/>
			</g>
			<g>
				<g>
					<path class="st9" d="M292.2,104c2,1.1,2.6,1.4,5.7,1.4c3.1,0,4.2-2.9,4.2-2.9c0.2-2.2-0.5-4.5-4.1-4.8c-3.1-0.3-5.3,1-5.3,1
						c1.4-1.3,3.5-3.5,3.2-5.6c-0.3-2.1-1.9-2.5-1.9-2.5c-1.6-0.5-3.6-0.2-4.9,1.4c-1.3,1.6-1.1,4-1.1,4c-0.8-6.1-4.3-5.1-5.2-4.8
						c-0.9,0.3-2.6,1.7-2.6,3.5c-0.1,1.8,3.7,4.4,3.7,4.4s-0.9-0.9-3.2-0.7c-2.1,0.2-5.2,1.9-4.3,4.4c1.3,3.6,6.1,2.6,8.1,1.8
						c0,0-1.2,1.7,0.1,4.1c1.3,2.4,3.5,3.3,5,3.1c3-0.5,3.9-4.2,3.1-6.3C292.1,103.8,292.2,104,292.2,104z"/>
				</g>
				<circle class="st0" cx="286.9" cy="99.1" r="0.8"/>
				<circle class="st0" cx="286.7" cy="101.5" r="0.8"/>
				<circle class="st0" cx="288.7" cy="102.3" r="0.8"/>
				<circle class="st0" cx="290.4" cy="100.7" r="0.8"/>
				<circle class="st0" cx="289.2" cy="99.1" r="0.8"/>
			</g>
		</g>
		<g>
			<path class="st0" d="M269.9,335c-0.8,0-1.6-0.4-2.1-1.1c-0.5-0.7-0.7-1.6-0.7-2.6c-0.2,0.1-0.5,0.1-0.7,0.1
				c-0.9,0-1.8-0.5-2.3-1.3c-0.8,0-1.6-0.4-2.1-1c-0.2-0.3-0.4-0.6-0.5-0.9c-0.8,0.4-1.6,0.7-2.3,0.7c-1,0-1.9-0.5-2.3-1.3
				c-0.4-0.7-0.5-1.6-0.1-2.4c0.4-0.8,1.1-1.4,1.9-1.9c-0.6-0.6-0.9-1.4-0.8-2.2c0-0.3,0.2-0.7,0.3-0.9c-0.2-0.3-0.3-0.6-0.3-0.9
				c-0.1-0.9,0.2-1.7,0.8-2.2c-0.8-0.5-1.5-1.1-1.9-1.9c-0.4-0.8-0.3-1.7,0.1-2.4c0.5-0.8,1.3-1.3,2.3-1.3c0.7,0,1.5,0.2,2.3,0.7
				c0.1-0.3,0.2-0.7,0.5-0.9c0.5-0.6,1.3-1,2.1-1c0.5-0.8,1.3-1.3,2.3-1.3c0.2,0,0.5,0,0.7,0.1c0-0.9,0.2-1.8,0.7-2.6
				c0.5-0.7,1.3-1.1,2.1-1.1c0.8,0,1.6,0.4,2.1,1.1c0.5,0.7,0.7,1.6,0.7,2.6c0.2-0.1,0.5-0.1,0.7-0.1c0.9,0,1.8,0.5,2.3,1.3
				c0.8,0,1.6,0.4,2.1,1c0.2,0.3,0.4,0.6,0.5,0.9c0.8-0.4,1.6-0.7,2.3-0.7c1,0,1.9,0.5,2.3,1.3c0.4,0.7,0.5,1.6,0.1,2.4
				c-0.4,0.8-1.1,1.4-1.9,1.9c0.6,0.6,0.9,1.4,0.8,2.2c0,0.3-0.2,0.7-0.3,0.9c0.2,0.3,0.3,0.6,0.3,0.9c0.1,0.9-0.2,1.7-0.8,2.2
				c0.8,0.5,1.5,1.1,1.9,1.9c0.4,0.8,0.3,1.7-0.1,2.4c-0.5,0.8-1.3,1.3-2.3,1.3l0,0c-0.7,0-1.5-0.2-2.3-0.7
				c-0.1,0.3-0.2,0.7-0.5,0.9c-0.5,0.6-1.3,1-2.1,1c-0.5,0.8-1.3,1.3-2.3,1.3c-0.2,0-0.5,0-0.7-0.1c0,0.9-0.2,1.8-0.7,2.6
				C271.5,334.6,270.8,335,269.9,335z"/>
			<path class="st1" d="M278.6,324.1c-1.8-0.4-0.6-1.3,0.8-1.7c1.4-0.4,0.9-2.4-0.6-1.9c-1.5,0.5-2.9,2.2-3.7,1.7
				c-0.6-0.3-1.6-0.9-2-1.1c0.1-0.3,0.1-0.6,0.1-1c0-0.3-0.1-0.7-0.1-1c0.4-0.2,1.4-0.8,2-1.1c0.8-0.4,2.2,1.2,3.7,1.7
				c1.5,0.5,2-1.5,0.6-1.9c-1.4-0.4-2.6-1.3-0.8-1.7c1.8-0.4,3.4-1.6,2.8-2.6c-0.6-1-2.5-0.2-3.7,1.1c-1.2,1.4-1.4-0.2-1.1-1.6
				c0.4-1.4-1.6-1.9-1.9-0.4c-0.3,1.5,0.4,3.6-0.3,4.1c-0.6,0.3-1.6,0.9-2,1.1c-0.4-0.5-1-0.8-1.7-1c0-0.4,0-1.6,0-2.3
				c0-0.9,2.2-1.3,3.3-2.3c1.2-1-0.3-2.5-1.3-1.5c-1,1-2.5,1.6-1.9-0.1c0.6-1.7,0.3-3.8-0.9-3.8c-1.2,0-1.5,2-0.9,3.8
				c0.6,1.7-0.9,1.2-1.9,0.1c-1-1-2.5,0.4-1.3,1.5c1.2,1,3.3,1.5,3.3,2.3c0,0.7,0,1.9,0,2.3c-0.7,0.1-1.3,0.5-1.7,1
				c-0.4-0.2-1.4-0.8-2-1.1c-0.8-0.4,0-2.5-0.3-4.1c-0.3-1.5-2.3-1-1.9,0.4c0.4,1.4,0.1,2.9-1.1,1.6c-1.2-1.4-3.1-2.1-3.7-1.1
				s1,2.3,2.8,2.6c1.8,0.4,0.6,1.3-0.8,1.7c-1.4,0.4-0.9,2.4,0.6,1.9c1.5-0.5,2.9-2.2,3.7-1.7c0.6,0.3,1.6,0.9,2,1.1
				c-0.1,0.3-0.1,0.6-0.1,1c0,0.3,0.1,0.7,0.1,1c-0.4,0.2-1.4,0.8-2,1.1c-0.8,0.4-2.2-1.2-3.7-1.7c-1.5-0.5-2,1.5-0.6,1.9
				c1.4,0.4,2.6,1.3,0.8,1.7c-1.8,0.4-3.4,1.6-2.8,2.6c0.6,1,2.5,0.2,3.7-1.1c1.2-1.4,1.4,0.2,1.1,1.6c-0.4,1.4,1.6,1.9,1.9,0.4
				c0.3-1.5-0.4-3.6,0.3-4.1c0.6-0.3,1.6-0.9,2-1.1c0.4,0.5,1,0.8,1.7,1c0,0.4,0,1.6,0,2.3c0,0.9-2.2,1.3-3.3,2.3
				c-1.2,1,0.3,2.5,1.3,1.5c1-1,2.5-1.6,1.9,0.1c-0.6,1.7-0.3,3.8,0.9,3.8c1.2,0,1.5-2,0.9-3.8c-0.6-1.7,0.9-1.2,1.9-0.1
				c1,1,2.5-0.4,1.3-1.5c-1.2-1-3.3-1.5-3.3-2.3c0-0.7,0-1.9,0-2.3c0.7-0.1,1.3-0.5,1.7-1c0.4,0.2,1.4,0.8,2,1.1
				c0.8,0.4,0,2.5,0.3,4.1c0.3,1.5,2.3,1,1.9-0.4c-0.4-1.4-0.1-2.9,1.1-1.6c1.2,1.4,3.1,2.1,3.7,1.1
				C282,325.7,280.4,324.5,278.6,324.1z M269.9,321.9c-1,0-1.9-0.8-1.9-1.9c0-1,0.8-1.9,1.9-1.9c1,0,1.9,0.8,1.9,1.9
				C271.8,321.1,271,321.9,269.9,321.9z"/>
		</g>
		<g>
			<path class="st7" d="M253.4,279.3c-0.4-0.1-0.9-0.2-1.4-0.2c-3.3,0-6,2.7-6,6c0,2.7,1.8,5,4.3,5.8
				C254,287.7,253.9,282.6,253.4,279.3z"/>
			<path class="st7" d="M235.3,284.9c0-3.3-2.7-6-6-6c-0.5,0-1,0.1-1.5,0.2c-0.7,3.8-0.6,8.6,2.6,11.7
				C233.2,290.2,235.3,287.8,235.3,284.9z"/>
			<g>
				<g>
					<circle class="st3" cx="246.5" cy="281" r="1.8"/>
					<circle class="st3" cx="235.1" cy="281.1" r="1.8"/>
					<path class="st3" d="M240.2,285.8c-0.6,0-1-0.5-1-1v-1.4c0-0.6,0.5-1,1-1s1,0.5,1,1v1.4C241.3,285.3,240.8,285.8,240.2,285.8z"
						/>
					<path class="st8" d="M239.9,290.1c-0.2,0-0.3,0-0.5-0.1l-2.9-1.6c-0.5-0.3-0.7-0.9-0.4-1.4c0.3-0.5,0.9-0.7,1.4-0.4l2.4,1.3
						l4.1-1.8c0.5-0.2,1.1,0,1.3,0.5c0.2,0.5,0,1.1-0.5,1.3l-4.6,2C240.2,290.1,240,290.1,239.9,290.1z"/>
				</g>
			</g>
			<path class="st10" d="M230.6,270c0,0-0.4,5.9,8.4,4.7c6.8-0.9,4.3-6.7,1.8-6c-4.4,1.3,1,9.3,9.8,6.6"/>
		</g>
		<g>
			<path class="st7" d="M123.6,286.5c0-4-3.2-7.2-7.2-7.2c-1.8,0-3.5,0.7-4.8,1.8l6.5,12.5C121.3,292.7,123.6,289.9,123.6,286.5z"/>
			<g>
				<circle class="st3" cx="121.9" cy="277.7" r="1.8"/>
				<circle class="st3" cx="133.8" cy="275.6" r="1.8"/>
				<path class="st8" d="M133.2,296.5c0.3,0,0.6,0,1,0c0.6,0,1-0.5,0.9-1.1c0-0.6-0.5-1-1.1-0.9c-5.2,0.4-8.1-3.3-8.1-3.4
					c-0.3-0.4-1-0.5-1.4-0.2c-0.5,0.3-0.5,1-0.2,1.4C124.4,292.4,127.5,296.5,133.2,296.5z"/>
				<path class="st3" d="M130.6,287.9c0.6,0,1-0.5,1-1l-0.5-5.5c0-0.6-0.5-1-1-1c-0.6,0-1,0.5-1,1l0.5,5.5
					C129.6,287.4,130.1,287.9,130.6,287.9z"/>
			</g>
			<path class="st10" d="M111.4,279c4.4-2.1,5-13.3,5-13.3s9.2,6.7,22.8,3.1l-4.4-4.6"/>
			<path class="st7" d="M134.3,284c0,3.5,2.6,6.5,6,7l-0.4-13.9C136.7,277.8,134.3,280.7,134.3,284z"/>
		</g>
		<g>
			<path class="st1" d="M29,254.4c-8.3-10.5-14.6-12.8-20.6-32.8c-3.8-12.8-5.7-26.1-1.4-36.7c0.3-0.4,0.8-1.8,2-0.2
				c1.2,1.5,2.9,4.5,5.1,5.5c0.3-0.7,0.5-0.4-0.3-1.5c-0.8-1-3.7-3.3-3.8-4.6c-0.1-1.3,1.9-0.5,3.2,0.8c1.3,1.2,4.5,4.3,5.6,7.1
				c1,2.8,3.6,6,4.6,9.3c1,3.3,5.7,16.6,6,18c2.2,9.7,2.2,20.3,5,26.8c0.9,2.1,0.7,1.9,5.1,3.3c2.4,0.8,7.8,1.5,10,3.4
				c1.5,1.3-1,2.5-3.4,4.4c-1.9,1.5-1.7,2.2-3.4,1.5c-2-0.9-1.4-0.5-0.8,1.3c0.5,1.3-0.7,6.6-2.8,6.2C35.8,265.3,31.2,258,29,254.4z
				"/>
			<path class="st1" d="M7.7,219.6c-1.7,3.8-3.4,10.3-2.1,13.9c1.3,3.6,2.8,0.2,4.6,1.1s3,1.1,4.7,1.8
				C12.3,230.8,9.9,225.2,7.7,219.6z"/>
			<path class="st1" d="M21.8,198.3c2.4,2.3,4.7,4.7,7,7c-0.4,1-0.9,1.2-1.9,0.8c-1.1-0.4-2.4-1.1-3.4-1.6
				C22.9,202.4,22.4,200.3,21.8,198.3z"/>
			<path class="st1" d="M31.7,235.9c2,1.3,5.9,3.4,6.6,5.5c0.7,2.1-2.6,0.4-3.2,1.6c-0.6,1.3-1.8,1.2-1.8,2.8
				c-1.3-0.4-3,5.9-3.7,2.6C28.9,245.1,31,239.4,31.7,235.9z"/>
			<path class="st0" d="M8.2,197.4c2.8,1.7,5.2,2.4,8.3,1.5c0.6-1.1,1-2.1,1.2-3.3c0.7,0,0.7-0.5,0.9,0.6c0.1,1.2-0.9,3.4-2,4
				c-2,1-4.9,0.4-6.5-0.3C8.6,199.3,7.8,198.7,8.2,197.4z"/>
			<path class="st0" d="M11.9,204.8c0.9-0.9,3.2-1.6,4.3-1.4c1.1,0.1,2.8,0.4,2,1.7c-0.8,1.3-2.7,1.5-4.3,1.6S9.6,207.1,11.9,204.8z
				"/>
			<path class="st0" d="M12.7,210.6c1.5-0.9,4.9-2,6.3-1.1c1.3,0.9,1.5,2,0.1,2.7c-1.4,0.7-3.8,1.3-5.5,1.4S12,211.7,12.7,210.6z"/>
			<path class="st0" d="M15.2,216.7c0.7-0.5,4.6-2.2,5.5-0.7c0.9,1.6,0.2,2.4-1.3,3.1c-1.4,0.8-3.4,0.9-4.9,1.5
				C12.1,219.3,12.8,218.4,15.2,216.7z"/>
			<path class="st0" d="M15.8,223.5c1.4-0.7,4.1-1.8,5.4-1.8s1.7-0.1,1.9,1c0.2,1.1-1,1.9-2,2.6c-1,0.7-3.9,2.4-5,1.2
				C15,225.4,15.3,224.7,15.8,223.5z"/>
			<path class="st0" d="M17.8,229.5c1.7-0.7,5.3-2.4,6.8-1.1c1.5,1.2,0,2.2-1.1,2.8c-1.1,0.7-3.2,1.8-4.6,1.2
				C17.4,231.9,17.4,230.7,17.8,229.5z"/>
			<path class="st0" d="M21.5,235.7c0.1-0.1,3.8-2.4,4.7-2.3c0.9,0.1,2.7-0.4,2.9,0.8c0.2,1.2-0.7,1.4-1.7,2.1
				c-1,0.7-2.9,2.6-4.4,2.2C21.5,238.2,20.8,237.6,21.5,235.7z"/>
			<path class="st0" d="M23.5,244.1c0.6-1.3,2.1-2.8,3.3-3.4c1.2-0.6,3.6-1.1,3.8,0.4c0.2,1.5-1.8,1.8-2.9,2.8
				C26.6,244.9,24.8,245.8,23.5,244.1z"/>
			<path class="st0" d="M10.7,188.9c0.6,0.9,0.3,2-0.6,2.6s-2.1,0.3-2.6-0.7c-0.6-0.9-0.3-2,0.6-2.6C9,187.7,10.1,188,10.7,188.9z"
				/>
			<path class="st3" d="M9.3,188.8c0.6,0.2,1,0.7,0.8,1.4c-0.2,0.6-0.7,1-1.4,0.8c-0.6-0.2-1-0.7-0.8-1.4
				C8.1,188.9,8.7,188.6,9.3,188.8z"/>
			<path class="st8" d="M14.9,214.6c0.7,0.2,1,0.8,0.8,1.5c-0.2,0.7-0.7,1.1-1.4,0.9c-0.7-0.2-1-0.8-0.8-1.5
				C13.7,214.8,14.3,214.4,14.9,214.6z"/>
			<path class="st8" d="M19.6,211.8c0.7,0.2,1,0.8,0.8,1.5c-0.2,0.7-0.7,1.1-1.4,0.9c-0.7-0.2-1-0.8-0.8-1.5
				C18.4,212.1,18.9,211.6,19.6,211.8z"/>
			<path class="st8" d="M14.4,208.2c0.6,0.2,1,0.8,0.8,1.5c-0.2,0.6-0.7,1-1.4,0.8c-0.6-0.2-1-0.8-0.8-1.5
				C13.2,208.4,13.7,208,14.4,208.2z"/>
			<path class="st8" d="M17.3,220.5c0.7,0.2,1,0.8,0.8,1.4c-0.1,0.6-0.6,1.1-1.3,0.9c-0.7-0.1-1-0.8-0.9-1.5
				C16.1,220.7,16.6,220.3,17.3,220.5z"/>
			<path class="st8" d="M21.7,221.2c0.7,0.2,1,0.8,0.8,1.4c-0.1,0.6-0.6,1.1-1.3,0.9c-0.7-0.1-1-0.8-0.9-1.5S21,221,21.7,221.2z"/>
			<path class="st8" d="M19.4,227.2c0.7,0.1,1,0.7,0.9,1.4c-0.1,0.6-0.6,1.1-1.3,1c-0.7-0.1-1-0.7-0.9-1.4
				C18.2,227.5,18.8,227.1,19.4,227.2z"/>
			<path class="st8" d="M24.3,227.5c0.7,0.1,1,0.7,0.9,1.4c-0.1,0.6-0.6,1.1-1.3,1c-0.7-0.1-1-0.7-0.9-1.4
				C23.1,227.8,23.6,227.4,24.3,227.5z"/>
			<path class="st8" d="M22.4,233.3c0.7,0.1,1,0.7,1,1.3c-0.1,0.7-0.6,1.1-1.2,1c-0.7-0.1-1.1-0.7-1-1.4
				C21.2,233.7,21.7,233.2,22.4,233.3z"/>
			<path class="st8" d="M27.2,234.5c0.7,0.1,1,0.7,1,1.3s-0.6,1.1-1.2,1c-0.7-0.1-1.1-0.7-1-1.4C26.1,234.9,26.6,234.4,27.2,234.5z"
				/>
			<path class="st8" d="M27.1,240c0.7,0.1,1.1,0.6,1,1.3c0,0.7-0.5,1.1-1.2,1.1c-0.7-0.1-1.1-0.6-1-1.3
				C26,240.4,26.5,239.9,27.1,240z"/>
		</g>
		<path class="st1" d="M30.9,114.1c0,0-1.1,10.9-4.8,12.7s-6.4,2.8-9.4-0.2c0,0-1.1-3.5,4.4-10.5c0,0,3.6-5.4,7.4-7.4
			C28.6,108.7,28.5,112.8,30.9,114.1z"/>
	</g>
</g>
<g>
</g>
<g>
</g>
<g>
</g>
<g>
</g>
<g>
</g>
<g>
</g>
<g>
</g>
<g>
</g>
<g>
</g>
<g>
</g>
<g>
</g>
</svg>
